<svg xmlns="http://www.w3.org/2000/svg" width="75" height="128" viewBox="0 0 75 128">
  <g fill="none" fill-rule="evenodd" transform="translate(.75)">
    <rect width="31.057" height="31.801" x="21.22" y="86.794" fill="#A4A9AD"/>
    <rect width="4.196" height="23.547" x="34.652" y="95.049" fill="#000"/>
    <rect width="31.057" height="14.43" x="21.22" y="86.794" fill="#000" opacity=".1"/>
    <path fill="#D1D3D3" d="M73.44575,3.13975 C73.44575,1.41275 72.03325,0 70.30625,0 L3.194,0 C1.46725,0 0.0545,1.41275 0.0545,3.13975 L0.0545,91.90925 C0.0545,93.6365 1.467,95.049 3.194,95.049 L70.30625,95.049 C72.033,95.049 73.44575,93.6365 73.44575,91.90925 L73.44575,3.13975 L73.44575,3.13975 Z"/>
    <circle cx="66.839" cy="6.607" r="2.131" fill="#A4A9AD"/>
    <circle cx="6.66" cy="6.607" r="2.131" fill="#A4A9AD"/>
    <circle cx="66.839" cy="88.442" r="2.131" fill="#A4A9AD"/>
    <circle cx="6.66" cy="88.442" r="2.131" fill="#A4A9AD"/>
    <path fill="#00B3E3" d="M13.5545,84.0605 C12.173,84.0605 11.0425,82.9305 11.0425,81.549 L11.0425,13.49975 C11.0425,12.1185 12.17275,10.98825 13.5545,10.98825 L59.946,10.98825 C61.3275,10.98825 62.4575,12.1185 62.4575,13.49975 L62.4575,81.549 C62.4575,82.9305 61.32725,84.0605 59.946,84.0605 L13.5545,84.0605 L13.5545,84.0605 Z"/>
    <path fill="#0071CE" d="M26.68225,84.0605 L59.946,84.0605 C61.3275,84.0605 62.4575,82.9305 62.4575,81.549 L62.4575,32.23375 C41.8445,40.581 27.196,60.577 26.68225,84.0605 L26.68225,84.0605 Z"/>
    <path fill="#000" d="M59.94575,10.98825 L13.5545,10.98825 C12.173,10.98825 11.0425,12.1185 11.0425,13.49975 L11.0425,18.1045 C11.0425,16.7235 12.17275,15.593 13.5545,15.593 L59.946,15.593 C61.3275,15.593 62.4575,16.724 62.4575,18.1045 L62.4575,13.49975 C62.4575,12.1185 61.327,10.98825 59.94575,10.98825 L59.94575,10.98825 Z" opacity=".1"/>
    <path fill="#D1D3D3" d="M62.5605,124.86025 C62.5605,126.58725 61.148,128 59.421,128 L14.07675,128 C12.35,128 10.93725,126.58725 10.93725,124.86025 L10.93725,119.60525 C10.93725,117.87825 12.34975,116.4655 14.07675,116.4655 L59.42125,116.4655 C61.148,116.4655 62.56075,117.87825 62.56075,119.60525 L62.56075,124.86025 L62.5605,124.86025 L62.5605,124.86025 Z"/>
    <path fill="#FFF" d="M39.2615 27.3255L20.1105 27.3255C18.952 27.3255 18.0125 26.3865 18.0125 25.2275 18.0125 24.0685 18.95175 23.1295 20.1105 23.1295L39.2615 23.1295C40.42 23.1295 41.3595 24.0685 41.3595 25.2275 41.35925 26.3865 40.42 27.3255 39.2615 27.3255L39.2615 27.3255zM29.686 37.719L20.11075 37.719C18.95225 37.719 18.01275 36.78 18.01275 35.621 18.01275 34.462 18.952 33.523 20.11075 33.523L29.686 33.523C30.8445 33.523 31.784 34.462 31.784 35.621 31.784 36.78 30.84475 37.719 29.686 37.719L29.686 37.719z"/>
  </g>
</svg>
