<svg xmlns="http://www.w3.org/2000/svg" width="128" height="107" viewBox="0 0 128 107">
  <g fill="none" fill-rule="evenodd">
    <path fill="#A4A9AD" d="M64.418,7.94425 C64.418,6.44225 63.189,5.2135 61.68725,5.2135 L27.88475,5.2135 C26.38275,5.2135 25.154,6.4425 25.154,7.94425 L25.154,17.6975 C25.154,19.1995 26.383,20.42825 27.88475,20.42825 L61.687,20.42825 C63.189,20.42825 64.41775,19.19925 64.41775,17.6975 L64.41775,7.94425 L64.418,7.94425 L64.418,7.94425 Z"/>
    <rect width="39.264" height="2.436" x="25.154" y="12.075" fill="#000" opacity=".2"/>
    <rect width="70.508" height="82.754" x="11.24" y="20.428" fill="#FFB819"/>
    <rect width="14.411" height="6.935" x="11.24" y="58.338" fill="#000" opacity=".1"/>
    <rect width="14.411" height="6.935" x="61.532" y="76.103" fill="#000" opacity=".1"/>
    <rect width="14.411" height="6.935" x="43.596" y="26.346" fill="#000" opacity=".1"/>
    <rect width="14.411" height="6.935" x="54.325" y="50.165" fill="#000" opacity=".1"/>
    <rect width="14.411" height="6.935" x="17.218" y="31.655" fill="#000" opacity=".1"/>
    <rect width="14.411" height="6.935" x="16.385" y="91.188" fill="#000" opacity=".1"/>
    <rect width="14.411" height="6.935" x="26.034" y="71.16" fill="#000" opacity=".1"/>
    <path fill="#333E48" d="M57.17275,72.57525 C57.17275,65.73425 51.627,60.18825 44.78575,60.18825 C37.9445,60.18825 32.399,65.73425 32.399,72.57525 L32.399,94.04775 L57.173,94.04775 L57.173,72.57525 L57.17275,72.57525 L57.17275,72.57525 Z"/>
    <path fill="#F2D383" d="M28.948,100.10375 L28.948,95.41325 C28.948,94.66225 29.5625,94.04775 30.3135,94.04775 L59.2585,94.04775 C60.0095,94.04775 60.624,94.66225 60.624,95.41325 L60.624,100.10375 L28.948,100.10375 L28.948,100.10375 Z"/>
    <path fill="#FFF" d="M50.80075 72.57525C50.80075 69.2535 48.10775 66.5605 44.78575 66.5605 41.464 66.5605 38.771 69.2535 38.771 72.57525L50.80075 72.57525 50.80075 72.57525zM68.50525 41.016C68.50525 40.265 67.89075 39.6505 67.13975 39.6505L22.43225 39.6505C21.68125 39.6505 21.06675 40.265 21.06675 41.016L21.06675 49.85225C21.06675 50.60325 21.68125 51.21775 22.43225 51.21775L67.14 51.21775C67.891 51.21775 68.5055 50.60325 68.5055 49.85225L68.5055 41.016 68.50525 41.016 68.50525 41.016z"/>
    <path fill="#000" d="M67.13975,39.65075 L22.43225,39.65075 C21.68125,39.65075 21.06675,40.26525 21.06675,41.01625 L21.06675,45.01175 C21.06675,44.26075 21.68125,43.64625 22.43225,43.64625 L67.14,43.64625 C67.891,43.64625 68.5055,44.26075 68.5055,45.01175 L68.5055,41.01625 C68.50525,40.265 67.89075,39.65075 67.13975,39.65075 L67.13975,39.65075 Z" opacity=".2"/>
    <rect width="4.096" height="11.568" x="42.738" y="39.651" fill="#333E48"/>
    <path fill="#D68231" d="M67.13975,53.266 L22.43225,53.266 C20.54975,53.266 19.01875,51.73475 19.01875,49.8525 L19.01875,41.01625 C19.01875,39.13375 20.55,37.60275 22.43225,37.60275 L67.14,37.60275 C69.0225,37.60275 70.5535,39.134 70.5535,41.01625 L70.5535,49.8525 C70.5535,51.73475 69.02225,53.266 67.13975,53.266 L67.13975,53.266 Z M23.115,49.16975 L66.4575,49.16975 L66.4575,41.699 L23.115,41.699 L23.115,49.16975 L23.115,49.16975 Z"/>
    <rect width="70.508" height="9.853" x="11.24" y="20.428" fill="#000" opacity=".1"/>
    <path fill="#D68231" d="M81.75025,17.242 C81.75025,15.74 80.52125,14.51125 79.0195,14.51125 L10.55225,14.51125 C9.05025,14.51125 7.8215,15.74025 7.8215,17.242 L7.8215,23.61425 C7.8215,25.11625 9.0505,26.345 10.55225,26.345 L79.0195,26.345 C80.5215,26.345 81.75025,25.116 81.75025,23.61425 L81.75025,17.242 L81.75025,17.242 L81.75025,17.242 Z"/>
    <rect width="9.773" height="88.669" x="71.978" y="14.511" fill="#000" opacity=".1"/>
    <rect width="41.903" height="93.336" x="75.943" y="9.846" fill="#F2D383"/>
    <rect width="14.411" height="6.935" x="75.943" y="58.254" fill="#000" opacity=".1"/>
    <rect width="14.411" height="6.935" x="100.248" y="87.722" fill="#000" opacity=".1"/>
    <rect width="14.411" height="6.935" x="103.434" y="39.094" fill="#000" opacity=".1"/>
    <rect width="14.411" height="6.935" x="79.04" y="25.112" fill="#000" opacity=".1"/>
    <rect width="14.411" height="6.935" x="98.975" y="12.075" fill="#000" opacity=".1"/>
    <rect width="41.903" height="6.28" x="75.943" y="9.846" fill="#000" opacity=".1"/>
    <path fill="#FFF" d="M105.75025,29.541 C105.75025,24.65 101.785,20.68475 96.894,20.68475 C92.003,20.68475 88.038,24.65 88.038,29.541 L88.038,49.5585 L105.75,49.5585 L105.75,29.541 L105.75025,29.541 L105.75025,29.541 Z"/>
    <path fill="#000" d="M96.894,20.68475 C92.003,20.68475 88.038,24.65 88.038,29.541 L88.038,33.31825 C88.038,28.42725 92.003,24.4625 96.894,24.4625 C101.785,24.4625 105.75025,28.42725 105.75025,33.31825 L105.75025,29.541 C105.75025,24.65 101.78525,20.68475 96.894,20.68475 L96.894,20.68475 Z" opacity=".2"/>
    <rect width="17.712" height="4.413" x="88.038" y="29.541" fill="#000" opacity=".2"/>
    <rect width="17.712" height="4.096" x="88.038" y="37.502" fill="#333E48"/>
    <path fill="#D68231" d="M96.89425,18.63675 C90.88175,18.63675 85.99025,23.52825 85.99025,29.541 L85.99025,49.5585 C85.99025,50.69 86.907,51.60675 88.0385,51.60675 L105.7505,51.60675 C106.882,51.60675 107.79875,50.69 107.79875,49.5585 L107.79875,29.541 C107.7985,23.52825 102.90675,18.63675 96.89425,18.63675 L96.89425,18.63675 Z M96.89425,22.733 C99.93475,22.733 102.5155,24.73675 103.387,27.493 L90.402,27.493 C91.273,24.73675 93.85375,22.733 96.89425,22.733 L96.89425,22.733 Z M103.702,47.5105 L90.0865,47.5105 L90.0865,31.58925 L103.702,31.58925 L103.702,47.5105 L103.702,47.5105 Z"/>
    <path fill="#FFF" d="M105.75025,69.0475 C105.75025,64.1565 101.785,60.19175 96.894,60.19175 C92.003,60.19175 88.038,64.1565 88.038,69.0475 L88.038,89.0655 L105.75,89.0655 L105.75,69.0475 L105.75025,69.0475 L105.75025,69.0475 Z"/>
    <path fill="#000" d="M96.894,60.19175 C92.003,60.19175 88.038,64.1565 88.038,69.0475 L88.038,72.8255 C88.038,67.9345 92.003,63.96925 96.894,63.96925 C101.785,63.96925 105.75025,67.9345 105.75025,72.8255 L105.75025,69.0475 C105.75025,64.1565 101.78525,60.19175 96.894,60.19175 L96.894,60.19175 Z" opacity=".2"/>
    <rect width="17.712" height="4.413" x="88.038" y="69.046" fill="#000" opacity=".2"/>
    <rect width="17.712" height="4.096" x="88.038" y="77.009" fill="#333E48"/>
    <path fill="#D68231" d="M96.89425,58.1435 C90.88175,58.1435 85.99025,63.03475 85.99025,69.04725 L85.99025,89.06525 C85.99025,90.19675 86.907,91.1135 88.0385,91.1135 L105.7505,91.1135 C106.882,91.1135 107.79875,90.19675 107.79875,89.06525 L107.79875,69.0475 C107.7985,63.03475 102.90675,58.1435 96.89425,58.1435 L96.89425,58.1435 Z M96.89425,62.24 C99.9345,62.24 102.51525,64.24325 103.387,66.99925 L90.40225,66.99925 C91.27325,64.2435 93.85375,62.24 96.89425,62.24 L96.89425,62.24 Z M103.702,87.01725 L90.0865,87.01725 L90.0865,71.0955 L103.702,71.0955 L103.702,87.01725 L103.702,87.01725 Z"/>
    <path fill="#A4A9AD" d="M128,105.15525 C128,105.76175 127.504,106.25825 126.897,106.25825 L1.103,106.25825 C0.49625,106.25825 0,105.76175 0,105.15525 L0,101.20725 C0,100.60025 0.49625,100.10375 1.103,100.10375 L126.897,100.10375 C127.504,100.10375 128,100.60025 128,101.20725 L128,105.15525 L128,105.15525 Z"/>
    <path fill="#D68231" d="M120.99125,2.9725 C120.99125,1.4705 119.76225,0.24175 118.2605,0.24175 L75.52775,0.24175 C74.02575,0.24175 72.797,1.47075 72.797,2.9725 L72.797,9.34475 C72.797,10.84675 74.026,12.0755 75.52775,12.0755 L118.2605,12.0755 C119.7625,12.0755 120.99125,10.8465 120.99125,9.34475 L120.99125,2.9725 L120.99125,2.9725 Z"/>
    <path fill="#D1D3D3" d="M126.897,100.10375 L70.00775,100.10375 L70.00775,106.25825 L126.89675,106.25825 C127.50375,106.25825 127.99975,105.76175 127.99975,105.15525 L127.99975,101.20725 C128,100.60025 127.50375,100.10375 126.897,100.10375 L126.897,100.10375 Z"/>
  </g>
</svg>
