<svg xmlns="http://www.w3.org/2000/svg" width="107" height="107" viewBox="0 0 107 107">
  <g fill="none" fill-rule="evenodd">
    <path fill="#FFB819" d="M56.8484587,1.38118313 C55.0068848,-0.460394377 51.9935332,-0.460394377 50.1519593,1.38118313 L1.38118043,50.1516393 C-0.460393477,51.9932168 -0.460393477,55.0065742 1.38118043,56.8481518 L50.1517503,105.618817 C51.9933242,107.460394 55.0066758,107.460394 56.8482497,105.618817 L105.61882,56.8481518 C107.460393,55.0065742 107.460393,51.9932168 105.61882,50.1516393 L56.8484587,1.38118313 L56.8484587,1.38118313 Z"/>
    <path fill="#333E48" d="M53.5001047,102.414286 C53.056677,102.414286 52.6130399,102.245121 52.274921,101.906582 L5.093416,54.7250842 C4.76827754,54.4001538 4.58571429,53.9594458 4.58571429,53.4998953 C4.58571429,53.0403448 4.76827754,52.5994275 5.093416,52.2747064 L52.2747116,5.09320881 C52.9513681,4.41654945 54.0488413,4.41654945 54.7252884,5.09320881 L101.906584,52.274497 C102.231722,52.5994275 102.414286,53.0401354 102.414286,53.499686 C102.414286,53.9592365 102.231722,54.4001538 101.906584,54.7248749 L54.7252884,101.906582 C54.3871695,102.244912 53.9437418,102.414286 53.5001047,102.414286 L53.5001047,102.414286 Z M8.7695951,53.499686 L53.5001047,98.230387 L98.2306143,53.499686 L53.5001047,8.76898492 L8.7695951,53.499686 L8.7695951,53.499686 Z"/>
    <path fill="#333E48" d="M38.1378862 67.2571429L30.6478281 67.2571429C29.7614777 67.2571429 29.0428571 68.2837622 29.0428571 69.55 29.0428571 70.8162378 29.7614777 71.8428571 30.6478281 71.8428571L38.1378862 71.8428571C39.0242366 71.8428571 39.7428571 70.8162378 39.7428571 69.55 39.7428571 68.2837622 39.0244305 67.2571429 38.1378862 67.2571429L38.1378862 67.2571429zM77.5750192 67.2571429L67.6392665 67.2571429C66.584079 67.2571429 65.7285714 68.2837622 65.7285714 69.55 65.7285714 70.8162378 66.584079 71.8428571 67.6392665 71.8428571L77.5750192 71.8428571C78.6302068 71.8428571 79.4857143 70.8162378 79.4857143 69.55 79.4857143 68.2837622 78.6304376 67.2571429 77.5750192 67.2571429L77.5750192 67.2571429z"/>
    <path fill="#333E48" d="M68.3756914,44.2698668 L56.5970864,39.3777971 L56.3957567,37.8145196 C58.924654,36.283929 60.6236801,33.4530322 60.6236801,30.2121784 C60.6236801,25.3452039 56.7961655,21.4 52.074125,21.4 C47.3522892,21.4 43.5243653,25.3452039 43.5243653,30.2121784 C43.5243653,34.4446053 46.420321,37.9787977 50.2803676,38.8282354 L50.7026688,42.1043067 L44.2936739,49.3167248 L37.400792,51.3534352 C35.7570087,51.8390993 34.8066262,53.606301 35.2778277,55.3001152 C35.6673925,56.70038 36.9060611,57.612661 38.2523511,57.612661 C38.5349083,57.612661 38.8219668,57.5725932 39.1069792,57.4882399 L46.8395532,55.2037416 C47.3887086,55.0415724 47.8834394,54.7256693 48.2693213,54.2914607 L51.7655832,50.356801 L52.7435871,57.9469109 L45.5480969,66.4410774 C45.1010386,66.9689182 44.8350543,67.6336222 44.7906554,68.3324893 L44.1083032,79.1448953 C43.9974082,80.9034507 45.2907059,82.4218102 46.9966886,82.5363198 C47.0650261,82.5407483 47.133159,82.5428571 47.2006781,82.5428571 C48.8190905,82.5428571 50.1805211,81.2469796 50.2869149,79.55907 L50.9013387,69.8244883 L54.7969863,65.226179 L56.3057313,69.8103591 C56.3577005,69.9680998 56.4217414,70.1218337 56.4970354,70.2692411 L61.6141649,80.30876 C62.1680261,81.3954414 63.2440351,82.0162817 64.3576911,82.0162817 C64.8430102,82.0162817 65.3354904,81.8986088 65.7946203,81.6497666 C67.3084804,80.8300634 67.8907815,78.9009034 67.0954884,77.3407891 L62.0915045,67.5229085 L59.1720195,58.6527372 C59.1331448,58.5350643 59.0871091,58.4220309 59.036572,58.3119498 L57.5333513,46.6479972 L63.7741624,49.2399633 L62.843831,55.286197 C62.5760052,57.0268273 63.727922,58.6615943 65.416718,58.9376404 C65.5810144,58.9646335 65.7440833,58.9774974 65.9053107,58.9774974 C67.4011657,58.9774974 68.717379,57.8570747 68.9592202,56.2859944 L70.2756381,47.7300392 C70.5023385,46.2606047 69.7140019,44.8257551 68.3756914,44.2698668 L68.3756914,44.2698668 Z"/>
  </g>
</svg>
