<svg xmlns="http://www.w3.org/2000/svg" width="128" height="121" viewBox="0 0 128 121">
  <g fill="none" fill-rule="evenodd">
    <path fill="#333E48" d="M99.77975,3.66825 C98.754,1.66225 96.07175,0.02125 93.81875,0.02125 L34.181,0.02125 C31.928,0.02125 29.24575,1.6625 28.22,3.66825 L15.85375,27.85875 C14.82825,29.86475 15.8325,31.506 18.0855,31.506 L109.914,31.506 C112.167,31.506 113.1715,29.8645 112.146,27.85875 L99.77975,3.66825 L99.77975,3.66825 Z"/>
    <path fill="#000" d="M22.80775,14.25625 L51.46425,14.25625 L51.46425,10.16 L24.90175,10.16 L22.80775,14.25625 L22.80775,14.25625 Z M103.09825,10.16 L76.536,10.16 L76.536,14.25625 L105.192,14.25625 L103.09825,10.16 L103.09825,10.16 Z" opacity=".1"/>
    <rect width="101.356" height="88.975" x="13.322" y="28.428" fill="#00B3E3"/>
    <rect width="14.411" height="6.935" x="100.269" y="41.033" fill="#000" opacity=".1"/>
    <rect width="14.411" height="6.935" x="80.552" y="72.507" fill="#000" opacity=".1"/>
    <rect width="14.411" height="6.935" x="62.766" y="40.924" fill="#000" opacity=".1"/>
    <rect width="14.411" height="6.935" x="13.322" y="57.845" fill="#000" opacity=".1"/>
    <rect width="14.411" height="6.935" x="24.641" y="34.649" fill="#000" opacity=".1"/>
    <rect width="14.411" height="6.935" x="45.941" y="82.516" fill="#000" opacity=".1"/>
    <rect width="14.411" height="6.935" x="20.528" y="101.347" fill="#000" opacity=".1"/>
    <rect width="14.411" height="6.935" x="100.267" y="100.957" fill="#000" opacity=".1"/>
    <rect width="29.218" height="31.419" x="49.391" y="85.984" fill="#FFF"/>
    <rect width="4.096" height="28.341" x="61.953" y="85.984" fill="#000"/>
    <rect width="17.712" height="20.017" x="22.251" y="47.836" fill="#FFF"/>
    <rect width="17.712" height="4.413" x="22.251" y="47.836" fill="#000" opacity=".2"/>
    <rect width="17.712" height="4.096" x="22.251" y="55.797" fill="#333E48"/>
    <path fill="#0071CE" d="M39.963,69.90125 L22.25125,69.90125 C21.12,69.90125 20.203,68.9845 20.203,67.853 L20.203,47.83525 C20.203,46.70375 21.12,45.787 22.25125,45.787 L39.96325,45.787 C41.0945,45.787 42.0115,46.70375 42.0115,47.83525 L42.0115,67.853 C42.01125,68.9845 41.09425,69.90125 39.963,69.90125 L39.963,69.90125 Z M24.29925,65.805 L37.91475,65.805 L37.91475,49.8835 L24.29925,49.8835 L24.29925,65.805 L24.29925,65.805 Z"/>
    <rect width="17.712" height="20.017" x="55.145" y="47.836" fill="#FFF"/>
    <rect width="17.712" height="4.413" x="55.145" y="47.836" fill="#000" opacity=".2"/>
    <rect width="17.712" height="4.096" x="55.145" y="55.797" fill="#333E48"/>
    <path fill="#0071CE" d="M72.85575,69.90125 L55.14425,69.90125 C54.013,69.90125 53.096,68.9845 53.096,67.853 L53.096,47.83525 C53.096,46.70375 54.013,45.787 55.14425,45.787 L72.85575,45.787 C73.98725,45.787 74.904,46.70375 74.904,47.83525 L74.904,67.853 C74.904,68.9845 73.98725,69.90125 72.85575,69.90125 L72.85575,69.90125 Z M57.19225,65.805 L70.8075,65.805 L70.8075,49.8835 L57.19225,49.8835 L57.19225,65.805 L57.19225,65.805 L57.19225,65.805 Z"/>
    <rect width="17.712" height="20.017" x="88.038" y="47.836" fill="#FFF"/>
    <rect width="17.712" height="4.413" x="88.038" y="47.836" fill="#000" opacity=".2"/>
    <rect width="17.712" height="4.096" x="88.038" y="55.797" fill="#333E48"/>
    <path fill="#0071CE" d="M105.75025,69.90125 L88.03825,69.90125 C86.90675,69.90125 85.99,68.9845 85.99,67.853 L85.99,47.83525 C85.99,46.70375 86.90675,45.787 88.03825,45.787 L105.75025,45.787 C106.88175,45.787 107.7985,46.70375 107.7985,47.83525 L107.7985,67.853 C107.7985,68.9845 106.88175,69.90125 105.75025,69.90125 L105.75025,69.90125 Z M90.0865,65.805 L103.702,65.805 L103.702,49.8835 L90.0865,49.8835 L90.0865,65.805 L90.0865,65.805 Z"/>
    <rect width="17.712" height="20.017" x="22.251" y="75.975" fill="#FFF"/>
    <rect width="17.712" height="4.413" x="22.251" y="75.975" fill="#000" opacity=".2"/>
    <rect width="17.712" height="4.096" x="22.251" y="83.936" fill="#333E48"/>
    <path fill="#0071CE" d="M39.963,98.041 L22.25125,98.041 C21.12,98.041 20.203,97.12425 20.203,95.99275 L20.203,75.975 C20.203,74.8435 21.12,73.92675 22.25125,73.92675 L39.96325,73.92675 C41.0945,73.92675 42.0115,74.8435 42.0115,75.975 L42.0115,95.99275 C42.01125,97.12425 41.09425,98.041 39.963,98.041 L39.963,98.041 Z M24.29925,93.94475 L37.91475,93.94475 L37.91475,78.02325 L24.29925,78.02325 L24.29925,93.94475 L24.29925,93.94475 Z"/>
    <rect width="17.712" height="20.017" x="88.038" y="75.975" fill="#FFF"/>
    <rect width="17.712" height="4.413" x="88.038" y="75.975" fill="#000" opacity=".2"/>
    <rect width="17.712" height="4.096" x="88.038" y="83.936" fill="#333E48"/>
    <path fill="#0071CE" d="M105.75025 98.041L88.03825 98.041C86.90675 98.041 85.99 97.12425 85.99 95.99275L85.99 75.975C85.99 74.8435 86.90675 73.92675 88.03825 73.92675L105.75025 73.92675C106.88175 73.92675 107.7985 74.8435 107.7985 75.975L107.7985 95.99275C107.7985 97.12425 106.88175 98.041 105.75025 98.041L105.75025 98.041zM90.0865 93.94475L103.702 93.94475 103.702 78.02325 90.0865 78.02325 90.0865 93.94475 90.0865 93.94475zM118.55225 28.594C118.55225 27.092 117.32325 25.86325 115.8215 25.86325L12.1785 25.86325C10.6765 25.86325 9.44775 27.09225 9.44775 28.594L9.44775 31.91825C9.44775 33.42025 10.67675 34.649 12.1785 34.649L115.82125 34.649C117.32325 34.649 118.552 33.42 118.552 31.91825L118.55225 28.594 118.55225 28.594 118.55225 28.594z"/>
    <path fill="#333E48" d="M128,119.376 C128,119.9825 127.504,120.479 126.897,120.479 L1.103,120.479 C0.49625,120.479 0,119.9825 0,119.376 L0,115.428 C0,114.821 0.49625,114.3245 1.103,114.3245 L126.897,114.3245 C127.504,114.3245 128,114.821 128,115.428 L128,119.376 L128,119.376 Z"/>
    <rect width="46.578" height="6.154" x="40.712" y="114.325" fill="#A4A9AD"/>
    <path fill="#FFF" d="M68.64225,4.412 C67.51075,4.412 66.594,5.32875 66.594,6.46025 L66.594,10.899 L61.40525,10.899 L61.40525,6.46025 C61.40525,5.32875 60.48825,4.412 59.357,4.412 C58.22575,4.412 57.30875,5.32875 57.30875,6.46025 L57.30875,19.434 C57.30875,20.5655 58.22575,21.48225 59.357,21.48225 C60.48825,21.48225 61.40525,20.5655 61.40525,19.434 L61.40525,14.99525 L66.594,14.99525 L66.594,19.434 C66.594,20.5655 67.51075,21.48225 68.64225,21.48225 C69.77375,21.48225 70.6905,20.5655 70.6905,19.434 L70.6905,6.46025 C70.6905,5.32875 69.77375,4.412 68.64225,4.412 L68.64225,4.412 Z"/>
  </g>
</svg>
