<svg xmlns="http://www.w3.org/2000/svg" width="124" height="106" viewBox="0 0 124 106">
  <g fill="none" fill-rule="evenodd">
    <path fill="#D68231" d="M40,35.1620688 C40,36.7227952 38.7705736,38 37.2677037,38 L17.7322963,38 C16.229664,38 15,36.723042 15,35.1620688 L15,5.8379312 C15,4.27720476 16.2294264,3 17.7322963,3 L37.2677037,3 C38.770336,3 40,4.276958 40,5.8379312 L40,35.1620688 L40,35.1620688 Z"/>
    <rect width="15" height="7" x="15" y="8" fill="#000" opacity=".1"/>
    <rect width="15" height="7" x="26" y="20" fill="#000" opacity=".1"/>
    <polygon fill="#D1D3D3" points="10 38.348 10 98 113 98 113 38.348 61.5 5"/>
    <polygon fill="#000" points="61.5 5 10 38.024 10 50 61.5 16.976 113 50 113 38.024" opacity=".1"/>
    <rect width="15" height="7" x="99" y="50" fill="#000" opacity=".1"/>
    <rect width="15" height="7" x="79" y="83" fill="#000" opacity=".1"/>
    <rect width="15" height="7" x="61" y="49" fill="#000" opacity=".1"/>
    <rect width="15" height="7" x="10" y="67" fill="#000" opacity=".1"/>
    <rect width="15" height="7" x="22" y="41" fill="#000" opacity=".1"/>
    <rect width="25" height="36" x="49" y="62" fill="#D68231"/>
    <circle cx="62" cy="74" r="5" fill="#FFF"/>
    <ellipse cx="61.5" cy="31" fill="#FFF" rx="10.5" ry="11"/>
    <path fill="#000" d="M61.5001209,20 C55.7010053,20 51,24.9466977 51,31.0492111 C51,31.7156755 51.0592462,32.3668715 51.1666148,33 C52.0427333,27.8286027 56.3343352,23.9023412 61.5001209,23.9023412 C66.6663903,23.9023412 70.9575086,27.8286027 71.8333852,33 C71.9407538,32.3666171 72,31.7154211 72,31.0492111 C72,24.9466977 67.2992365,20 61.5001209,20 L61.5001209,20 Z" opacity=".2"/>
    <polygon fill="#D68231" points="72 28.815 63.586 28.815 63.586 20 59.414 20 59.414 28.815 51 28.815 51 33.185 59.414 33.185 59.414 42 63.586 42 63.586 33.185 72 33.185"/>
    <path fill="#FFB819" d="M61.5002402,44 C54.6075395,44 49,38.1680469 49,31 C49,23.8319531 54.6075395,18 61.5002402,18 C68.3927007,18 74,23.8319531 74,31 C74,38.1680469 68.3927007,44 61.5002402,44 L61.5002402,44 Z M61.5002402,22.3087713 C56.892057,22.3087713 53.14345,26.2076472 53.14345,30.9997502 C53.14345,35.7918532 56.8922972,39.6907292 61.5002402,39.6907292 C66.1081831,39.6907292 69.8567901,35.7918532 69.8567901,30.9997502 C69.8567901,26.2076472 66.1081831,22.3087713 61.5002402,22.3087713 L61.5002402,22.3087713 Z"/>
    <rect width="25" height="5" x="49" y="62" fill="#000" opacity=".1"/>
    <rect width="18" height="21" x="19" y="53" fill="#FFF"/>
    <rect width="18" height="5" x="19" y="53" fill="#000" opacity=".2"/>
    <rect width="18" height="4" x="19" y="61" fill="#D68231"/>
    <rect width="18" height="21" x="19" y="53" stroke="#FFB819" stroke-width="3.75"/>
    <rect width="18" height="21" x="87" y="53" fill="#FFF"/>
    <rect width="18" height="5" x="87" y="53" fill="#000" opacity=".2"/>
    <rect width="18" height="4" x="87" y="61" fill="#D68231"/>
    <path fill="#FFB819" d="M103.933735,76 L86.0662653,76 C84.9251004,76 84,75.0495205 84,73.8764992 L84,53.1235008 C84,51.9504795 84.9251004,51 86.0662653,51 L103.933735,51 C105.0749,51 106,51.9504795 106,53.1235008 L106,73.8764992 C106,75.0492743 105.0749,76 103.933735,76 L103.933735,76 Z M88.1320514,71.7529984 L101.86723,71.7529984 L101.86723,55.2470016 L88.1320514,55.2470016 L88.1320514,71.7529984 L88.1320514,71.7529984 Z"/>
    <path fill="#00AD68" d="M123.999758,104.565678 C123.999758,105.354884 123.381454,106 122.625831,106 L1.373927,106 C0.61830348,106 0,105.354884 0,104.565678 L0,99.4338168 C0,98.6451164 0.61830348,98 1.373927,98 L122.626073,98 C123.381697,98 124,98.6451164 124,99.4338168 L124,104.565678 L123.999758,104.565678 L123.999758,104.565678 Z"/>
    <rect width="41" height="8" x="41" y="98" fill="#333E48"/>
    <path fill="#FFB819" d="M118.542785,45.99956 C117.738812,45.99956 116.925644,45.7730898 116.193043,45.2971996 L61.9999327,10.1078105 L7.8065803,45.2971996 C5.71958715,46.6532469 2.97402741,45.9874547 1.67383019,43.8122812 C0.373632972,41.6371077 1.01187642,38.7749577 3.09886957,37.4194148 L59.6458354,0.70172988 C61.0868429,-0.23390996 62.9127805,-0.23390996 64.3537881,0.70172988 L120.901238,37.419667 C122.988231,38.7749577 123.626232,41.6371077 122.326277,43.8125334 C121.482141,45.2240634 120.028794,45.99956 118.542785,45.99956 L118.542785,45.99956 Z"/>
    <path fill="#218649" d="M120 97C120 87.6109786 112.612686 80 103.500121 80 94.3875552 80 87 87.6112274 87 97L120 97 120 97zM4 97C4 87.6109786 11.3873137 80 20.5001207 80 29.6129278 80 37 87.6112274 37 97L4 97 4 97z"/>
  </g>
</svg>
