<svg xmlns="http://www.w3.org/2000/svg" width="130" height="111" viewBox="0 0 130 111">
  <g fill="none" fill-rule="evenodd">
    <path fill="#00B3E3" d="M118.817063,36.3576388 C118.050426,35.0609886 116.198881,34 114.701871,34 L14.2989965,34 C12.8014794,34 10.9491738,35.0609886 10.1832972,36.3576388 L2.33382265,49.6423612 C1.56769243,50.9390114 2.16568484,52 3.66294827,52 L125.336651,52 C126.833915,52 127.432414,50.9390114 126.666284,49.6423612 L118.817063,36.3576388 L118.817063,36.3576388 Z"/>
    <path fill="#000" d="M6,44 L55.2635997,44 L55.2635997,40 L8.48097753,40 L6,44 L6,44 Z M121.519277,40 L74.1760319,40 L74.1760319,44 L124,44 L121.519277,40 L121.519277,40 Z" opacity=".1"/>
    <polygon fill="#D1D3D3" points="78.617 51.517 64.5 29 50.384 51.517 3 51.517 3 106 126 106 126 51.517"/>
    <path fill="#000" d="M83.0318981,53.8433836 C82.0063056,53.8433836 80.7218477,53.1446254 80.1775473,52.2912505 L79.3217481,50.9501618 L78.6165109,50.9501618 L65.4614456,30.2086519 C64.8338933,29.9302423 64.1656007,29.9304909 63.5380483,30.209149 L50.3834891,50.9501618 L49.6800232,50.9501618 L48.824224,52.2912505 C48.2796706,53.144874 46.9952127,53.8433836 45.9696202,53.8433836 L3,53.8433836 L3,61 L48.2844784,61 C49.310071,61 50.5704896,60.2875699 51.0859428,59.4162972 L62.1440219,42.7833165 C63.4401198,40.6109765 65.5619045,40.6109765 66.8580025,42.7833165 L77.9160815,59.4162972 C78.4315348,60.2873213 79.6919534,61 80.7175459,61 L126,61 L126,53.8433836 L83.0318981,53.8433836 L83.0318981,53.8433836 Z" opacity=".1"/>
    <rect width="12" height="6" x="114" y="62" fill="#A4A9AD"/>
    <rect width="12" height="6" x="78" y="74" fill="#A4A9AD"/>
    <rect width="12" height="6" x="100" y="94" fill="#A4A9AD"/>
    <rect width="12" height="6" x="38" y="96" fill="#A4A9AD"/>
    <rect width="12" height="6" x="3" y="68" fill="#A4A9AD"/>
    <rect width="12" height="6" x="32" y="56" fill="#A4A9AD"/>
    <rect width="21" height="28" x="54" y="77" fill="#333E48"/>
    <rect width="21" height="4" x="54" y="77" fill="#000" opacity=".1"/>
    <rect width="4" height="8" x="58" y="84" fill="#FFF"/>
    <rect width="4" height="8" x="67" y="84" fill="#FFF"/>
    <rect width="12" height="16" x="33" y="73" fill="#FFF"/>
    <rect width="12" height="4" x="33" y="73" fill="#000" opacity=".2"/>
    <rect width="12" height="4" x="33" y="79" fill="#A93439"/>
    <path fill="#FF5959" d="M44.953285,91 L33.046715,91 C31.9165626,91 31,90.104962 31,89.0008052 L31,72.9991948 C31,71.895038 31.9163128,71 33.046715,71 L44.953285,71 C46.0834374,71 47,71.895038 47,72.9991948 L47,89.0008052 C47,90.104718 46.0834374,91 44.953285,91 L44.953285,91 Z M35.0929303,87.0016105 L42.9063203,87.0016105 L42.9063203,74.9981455 L35.0929303,74.9981455 L35.0929303,87.0016105 L35.0929303,87.0016105 Z"/>
    <rect width="12" height="16" x="9" y="73" fill="#FFF"/>
    <rect width="12" height="4" x="9" y="73" fill="#000" opacity=".2"/>
    <rect width="12" height="4" x="9" y="79" fill="#A93439"/>
    <path fill="#FF5959" d="M20.9537846,91 L9.04671496,91 C7.91656258,91 7,90.104962 7,89.0008052 L7,72.9991948 C7,71.895038 7.91631276,71 9.04671496,71 L20.953285,71 C22.0834374,71 22.9999999,71.895038 22.9999999,72.9991948 L22.9999999,89.0008052 C23.0002498,90.104718 22.083937,91 20.9537846,91 L20.9537846,91 Z M11.0934299,87.0016105 L18.9068198,87.0016105 L18.9068198,74.9981455 L11.0934299,74.9981455 L11.0934299,87.0016105 L11.0934299,87.0016105 Z"/>
    <rect width="12" height="16" x="84" y="73" fill="#FFF"/>
    <rect width="12" height="4" x="84" y="73" fill="#000" opacity=".2"/>
    <rect width="12" height="4" x="84" y="79" fill="#A93439"/>
    <path fill="#FF5959" d="M95.953285,91 L84.046715,91 C82.9165626,91 82,90.104962 82,89.0008052 L82,72.9991948 C82,71.895038 82.9163128,71 84.046715,71 L95.953285,71 C97.0836872,71 98,71.895038 98,72.9991948 L98,89.0008052 C98,90.104718 97.0836872,91 95.953285,91 L95.953285,91 Z M86.0931801,87.0016105 L93.9065701,87.0016105 L93.9065701,74.9981455 L86.0931801,74.9981455 L86.0931801,87.0016105 L86.0931801,87.0016105 Z"/>
    <rect width="12" height="16" x="108" y="73" fill="#FFF"/>
    <rect width="12" height="4" x="108" y="73" fill="#000" opacity=".2"/>
    <rect width="12" height="4" x="108" y="79" fill="#A93439"/>
    <path fill="#FF5959" d="M119.953535,91 L108.046715,91 C106.916313,91 106,90.104962 106,89.0008052 L106,72.9991948 C106,71.895038 106.916313,71 108.046715,71 L119.953285,71 C121.083437,71 122,71.895038 122,72.9991948 L122,89.0008052 C122,90.104718 121.083687,91 119.953535,91 L119.953535,91 Z M110.09318,87.0016105 L117.90657,87.0016105 L117.90657,74.9981455 L110.09318,74.9981455 L110.09318,87.0016105 L110.09318,87.0016105 Z"/>
    <rect width="24" height="14" x="65" y="4" fill="#FFB819"/>
    <rect width="6" height="14" x="65" y="4" fill="#000" opacity=".1"/>
    <path fill="#333E48" d="M65,30 C63.8953985,30 63,29.0971447 63,27.9833443 L63,2.01665573 C63,0.903101411 63.8953985,0 65,0 C66.1043574,0 67,0.902855267 67,2.01665573 L67,27.9833443 C66.9997559,29.0971447 66.1043574,30 65,30 L65,30 Z"/>
    <path fill="#0071CE" d="M66.9756548,26.6002341 C65.6142787,24.4665886 63.3864804,24.4665886 62.0251043,26.6002341 L48.824058,47.2921711 C48.2795076,48.1454802 46.9950568,48.8439359 45.96947,48.8439359 L1.86442733,48.8439359 C0.839093514,48.8439359 0,49.6679148 0,50.6753315 L0,54.1686044 C0,55.1757725 0.839093514,56 1.86442733,56 L48.2838093,56 C49.3093962,56 50.5698077,55.2876249 51.0852581,54.4169166 L62.1432758,37.7852195 C63.4393666,35.6127985 65.5611395,35.6127985 66.8572303,37.7852195 L77.915248,54.4169166 C78.4306983,55.2876249 79.6911099,56 80.7166968,56 L127.13532,56 C128.160906,56 129,55.1757725 129,54.1686044 L129,50.6753315 C129,49.6681634 128.160906,48.8439359 127.13532,48.8439359 L83.0312892,48.8439359 C82.0057023,48.8439359 80.7212516,48.1454802 80.1769542,47.2921711 L66.9756548,26.6002341 L66.9756548,26.6002341 Z"/>
    <circle cx="64.5" cy="62.5" r="9.5" fill="#FFF"/>
    <path fill="#333E48" d="M68.860538,60.7208148 L67.2794463,60.7208148 L67.2794463,59.1397232 C67.2794463,57.9582136 66.3214939,57 65.1397232,57 C63.9579525,57 63,57.9579525 63,59.1397232 L63,62.8602768 C63,64.0420475 63.9579525,65 65.1397232,65 L68.8602768,65 C70.0420475,65 71,64.0420475 71,62.8602768 C71,61.6785061 70.0423087,60.7208148 68.860538,60.7208148 L68.860538,60.7208148 Z"/>
    <path fill="#00AD68" d="M130,109.924446 C130,110.515964 129.495996,111 128.879766,111 L1.12048828,111 C0.504257812,111 0,110.515964 0,109.924446 L0,106.075554 C0,105.484036 0.504257812,105 1.12048828,105 L128.879766,105 C129.495996,105 130,105.484036 130,106.075554 L130,109.924446 L130,109.924446 Z"/>
    <rect width="34" height="6" x="48" y="105" fill="#A4A9AD"/>
    <path fill="#218649" d="M123 105C123 100.029297 118.746853 96 113.5 96 108.253147 96 104 100.029297 104 105L123 105 123 105zM31 105C31 100.029297 26.7468534 96 21.5 96 16.2531466 96 12 100.029297 12 105L31 105 31 105z"/>
  </g>
</svg>
