<?xml version="1.0" standalone="no"?>
<!DOCTYPE svg PUBLIC "-//W3C//DTD SVG 20010904//EN"
 "http://www.w3.org/TR/2001/REC-SVG-20010904/DTD/svg10.dtd">
<svg version="1.0" xmlns="http://www.w3.org/2000/svg"
 width="1216.000000pt" height="1216.000000pt" viewBox="0 0 1216.000000 1216.000000"
 preserveAspectRatio="xMidYMid meet">
<metadata>
Created by potrace 1.11, written by Peter Selinger 2001-2013
</metadata>
<g transform="translate(0.000000,1216.000000) scale(0.100000,-0.100000)"
fill="#000000" stroke="none">
<path d="M9363 8869 c-103 -19 -274 -124 -442 -274 -117 -103 -387 -384 -471
-490 -17 -22 -35 -42 -38 -45 -23 -17 -259 -328 -343 -450 -24 -36 -46 -67
-49 -70 -17 -16 -192 -297 -274 -440 -55 -95 -156 -300 -200 -405 -26 -60 -50
-117 -55 -125 -10 -19 -106 -315 -126 -390 -9 -30 -19 -60 -23 -65 -8 -13
-168 -115 -178 -115 -4 0 -15 -6 -23 -13 -15 -12 -131 -67 -176 -83 -55 -20
-139 -30 -134 -17 3 8 67 82 154 177 41 45 175 222 236 311 63 92 77 117 120
204 51 104 42 217 -24 282 -48 49 -110 71 -187 67 -138 -6 -262 -82 -345 -212
-32 -50 -108 -199 -110 -216 0 -3 -4 -11 -8 -17 -5 -7 -6 -13 -3 -13 3 0 -2
-17 -11 -37 -16 -39 -39 -126 -51 -198 -8 -47 -8 -215 0 -263 5 -30 1 -36 -56
-81 -33 -27 -92 -69 -131 -94 -38 -26 -74 -50 -80 -54 -19 -15 -140 -71 -169
-79 l-28 -7 5 44 c4 24 9 54 12 67 3 12 7 30 9 40 27 118 166 435 206 472 3 3
17 21 30 40 13 19 27 37 30 40 6 6 11 14 73 120 59 99 98 170 93 170 -2 0 2
20 9 44 8 24 12 52 10 63 -2 10 -4 23 -4 30 -2 23 -47 61 -77 66 -17 3 -45 -2
-61 -10 -30 -14 -93 -91 -93 -112 0 -6 -3 -11 -7 -11 -5 0 -13 -10 -19 -23
-100 -201 -194 -365 -251 -437 -37 -47 -70 -87 -73 -90 -3 -3 -39 -43 -80 -90
-122 -138 -273 -286 -373 -365 -21 -16 -50 -40 -65 -51 -41 -32 -137 -84 -166
-90 -22 -4 -38 7 -42 29 -1 4 -3 10 -4 15 -6 18 2 121 12 157 6 22 12 45 13
50 16 74 164 396 252 545 92 157 247 371 312 433 27 25 41 48 42 65 4 89 -23
116 -126 126 -38 4 -54 11 -65 28 -30 45 -62 68 -97 68 -52 0 -89 -27 -109
-79 -39 -105 -212 -222 -397 -270 l-77 -20 -28 27 c-15 15 -50 45 -77 67 -27
22 -57 48 -67 58 -10 9 -20 17 -23 17 -3 0 -45 28 -93 63 -111 80 -135 95
-257 157 -54 28 -101 53 -103 55 -5 4 112 228 138 265 10 14 17 27 17 30 0 3
6 16 15 30 8 14 43 72 78 130 106 176 240 367 380 540 42 52 256 269 286 290
12 8 54 38 95 65 89 60 99 71 94 110 -4 40 -37 65 -77 58 -32 -5 -137 -67
-194 -115 -144 -120 -258 -238 -399 -413 -128 -159 -382 -547 -493 -755 -293
-545 -482 -1056 -534 -1436 -10 -78 -14 -90 -32 -92 -11 0 -55 -37 -97 -80
-78 -81 -173 -162 -190 -162 -9 0 -7 60 7 155 11 81 47 231 91 383 25 86 46
162 47 167 2 6 6 17 9 25 6 16 72 239 102 345 9 33 22 67 29 75 20 24 52 83
59 109 8 31 -9 66 -39 80 -13 6 -24 16 -24 23 0 19 -58 54 -110 69 -46 12
-235 12 -235 -1 0 -1 -16 -3 -35 -6 -19 -2 -73 -16 -120 -31 -47 -15 -87 -27
-90 -28 -84 -26 -275 -125 -365 -189 -27 -20 -51 -33 -52 -29 -1 5 -4 20 -7
35 -9 38 -49 55 -111 46 -47 -7 -94 -13 -190 -24 -21 -2 -51 -7 -65 -9 -14 -3
-48 -8 -77 -11 -51 -6 -51 -6 -104 46 -29 29 -78 68 -108 88 -31 19 -67 43
-81 52 -36 24 -217 87 -290 100 -58 11 -158 14 -205 7 -114 -16 -186 -135
-140 -231 41 -86 175 -169 326 -202 13 -3 33 -7 44 -9 11 -3 31 -7 45 -10 14
-3 72 -8 130 -11 129 -7 113 -7 190 0 l65 6 19 -42 c24 -54 30 -201 11 -274
-16 -59 -64 -167 -76 -172 -5 -2 -9 -9 -9 -16 0 -29 -244 -296 -272 -296 -4 0
-13 -6 -21 -14 -28 -29 -167 -117 -268 -170 -155 -82 -320 -142 -444 -162 -22
-3 -43 -8 -46 -9 -8 -6 -159 -18 -214 -18 -69 0 -173 11 -213 22 -18 5 -35 10
-38 9 -2 0 -19 5 -37 12 -192 72 -300 204 -357 435 -18 72 -23 119 -23 240 0
83 5 175 11 205 6 30 13 66 16 80 2 14 9 43 15 65 6 22 11 43 11 47 4 63 213
524 273 603 4 6 37 55 73 110 58 86 177 247 209 281 5 6 35 40 65 75 210 243
509 495 785 661 147 89 377 193 440 199 6 0 15 4 20 9 6 4 24 11 40 14 42 9
72 15 93 20 17 4 74 11 169 20 24 3 45 1 47 -3 7 -12 -40 -109 -76 -155 -18
-22 -49 -57 -70 -77 -53 -51 -61 -78 -36 -117 36 -57 81 -43 173 52 134 138
197 305 147 390 -29 49 -72 65 -175 64 -413 -1 -892 -219 -1362 -617 -145
-123 -348 -328 -455 -460 -19 -23 -40 -48 -45 -54 -31 -36 -131 -175 -187
-262 -181 -277 -298 -550 -354 -823 -22 -105 -27 -155 -27 -292 -2 -253 41
-420 154 -609 27 -47 83 -106 153 -165 68 -57 235 -124 356 -143 59 -10 291
-9 355 0 28 4 65 9 82 12 37 5 160 33 183 42 8 3 20 7 25 8 49 12 159 56 250
100 260 126 508 315 633 480 61 81 65 85 52 50 -7 -16 -13 -37 -15 -45 -49
-215 -49 -305 0 -415 62 -140 180 -185 319 -122 61 28 180 107 246 164 62 52
312 304 382 383 88 100 93 107 201 242 55 70 102 127 103 125 2 -2 -6 -32 -17
-67 -31 -99 -98 -378 -105 -440 -3 -30 -8 -58 -10 -62 -3 -4 -5 -48 -5 -98 -1
-137 37 -200 120 -200 29 0 88 18 106 31 92 72 138 111 177 151 27 26 48 47
49 45 2 -7 9 -48 13 -82 3 -22 10 -56 16 -75 6 -19 13 -44 15 -55 11 -49 78
-164 120 -207 154 -154 381 -134 640 57 165 122 340 324 423 490 51 103 132
357 124 389 -2 4 1 13 6 20 9 11 10 258 1 285 -3 10 16 21 66 36 97 31 190 71
249 109 28 18 58 36 66 41 8 5 4 -7 -10 -26 -14 -18 -48 -70 -75 -114 -27 -44
-54 -83 -59 -87 -6 -4 -7 -8 -3 -8 5 0 0 -12 -10 -28 -34 -51 -43 -67 -111
-207 -78 -158 -145 -331 -166 -432 -8 -37 -14 -109 -12 -159 2 -113 32 -184
98 -231 86 -62 167 -62 301 -1 37 17 67 35 67 39 0 5 5 9 10 9 25 0 197 141
323 264 63 62 87 81 71 55 -11 -19 -12 -151 -1 -184 40 -118 156 -152 308 -90
104 42 268 144 379 236 45 37 45 37 69 18 28 -23 113 -49 143 -44 13 2 39 6
58 9 70 10 242 80 310 126 45 30 61 32 56 7 -31 -164 -43 -233 -52 -296 -3
-25 -7 -56 -9 -67 -10 -65 -22 -183 -32 -314 -14 -178 -7 -685 11 -820 2 -19
7 -62 11 -95 13 -117 15 -131 25 -185 5 -30 14 -80 20 -110 21 -116 33 -165
59 -263 46 -168 121 -369 150 -399 27 -28 66 -30 95 -3 14 13 26 32 26 42 0
10 -16 57 -35 105 -36 87 -101 289 -111 342 -2 16 -7 32 -9 36 -2 4 -7 22 -10
41 -3 19 -8 41 -10 49 -5 17 -10 47 -25 135 -5 33 -13 74 -16 90 -7 34 -10 61
-19 160 -3 39 -8 81 -10 95 -27 155 -20 767 10 960 3 19 8 58 10 85 3 28 7 59
9 70 4 24 15 89 21 130 10 66 16 102 26 145 11 53 18 86 25 120 16 81 25 95
76 130 253 171 1001 894 1385 1339 12 14 34 40 48 56 85 97 205 247 289 360
53 72 101 135 106 142 6 7 10 16 10 22 0 5 4 11 8 13 11 4 75 111 116 194 91
186 139 468 96 576 -17 42 -56 95 -79 108 -34 18 -96 26 -138 19z m67 -169
c12 -23 16 -128 6 -180 -16 -86 -51 -201 -81 -267 -27 -57 -131 -231 -167
-278 -5 -5 -25 -32 -45 -60 -37 -51 -183 -236 -193 -245 -3 -3 -27 -32 -55
-65 -27 -33 -62 -73 -77 -90 -15 -16 -37 -41 -48 -55 -187 -220 -658 -696
-966 -976 -122 -112 -243 -214 -253 -214 -12 0 66 222 124 355 67 154 181 373
280 537 47 77 85 144 85 148 0 5 4 10 8 12 5 2 31 37 58 78 77 117 282 401
303 420 3 3 24 28 45 55 22 28 47 58 55 67 9 9 27 31 41 49 14 17 34 41 45 53
11 12 45 51 76 86 101 116 321 332 411 403 141 113 267 187 315 187 12 0 27
-9 33 -20z m-7675 -1758 c39 -10 77 -21 85 -23 63 -18 250 -127 224 -130 -33
-5 -171 3 -229 12 -155 25 -305 95 -305 144 0 27 117 26 225 -3z m2760 -52
c85 -48 273 -179 259 -181 -28 -3 -81 4 -115 16 -22 8 -39 12 -39 9 0 -7 -112
53 -137 73 -33 27 -73 93 -73 119 l0 24 35 -20 c19 -11 51 -29 70 -40z m-878
16 c16 -7 -8 -95 -38 -138 -25 -36 -127 -174 -146 -198 -7 -8 -34 -42 -60 -75
-48 -60 -64 -81 -93 -114 -8 -9 -37 -44 -65 -76 -81 -98 -122 -142 -290 -310
-183 -184 -212 -210 -315 -287 -74 -55 -134 -90 -177 -102 -18 -6 -23 -1 -34
31 -36 107 13 326 122 539 46 90 130 226 156 252 7 7 13 17 13 22 0 20 193
201 265 248 98 64 234 132 335 165 71 24 101 31 195 46 40 6 110 5 132 -3z
m711 -244 c72 -65 197 -121 327 -148 17 -3 88 -8 159 -10 71 -2 131 -6 135 -9
9 -9 7 -211 -3 -270 -13 -80 -75 -265 -113 -335 -55 -102 -120 -188 -223 -291
-248 -249 -472 -315 -568 -165 -33 53 -72 158 -79 216 -11 93 -4 324 11 349 2
3 7 27 10 52 8 59 57 251 92 359 15 47 28 87 29 90 1 3 4 12 7 20 3 8 16 44
29 80 12 36 26 69 31 75 4 5 8 14 8 21 0 6 9 32 21 58 l20 46 35 -52 c19 -29
52 -68 72 -86z m2848 73 c11 -14 9 -26 -7 -69 -17 -44 -152 -259 -184 -292 -5
-6 -23 -29 -40 -50 -16 -21 -52 -65 -80 -99 -108 -132 -140 -157 -129 -102 2
12 6 40 9 62 8 68 15 97 47 190 30 89 101 238 125 263 7 7 18 21 25 31 18 25
73 63 111 77 43 16 108 11 123 -11z m-4556 -89 c-76 -79 -142 -163 -214 -276
l-48 -75 8 50 c11 79 7 198 -10 256 -9 30 -17 58 -18 63 -2 6 8 11 22 12 14 1
39 4 55 8 17 3 53 8 80 11 28 3 73 9 100 13 100 17 100 16 25 -62z"/>
<path d="M6620 7183 c-74 -27 -114 -143 -68 -193 62 -66 178 22 165 124 -8 59
-48 87 -97 69z"/>
<path d="M9312 6140 c-4 -3 -8 -124 -7 -270 0 -257 0 -265 20 -271 30 -9 45 0
45 28 l0 26 26 -26 c50 -51 146 -49 200 4 44 42 62 100 59 181 -6 121 -71 194
-172 190 -36 -1 -98 -33 -107 -55 -2 -7 -5 36 -5 95 l-1 108 -26 -2 c-14 -1
-28 -5 -32 -8z m230 -217 c30 -26 48 -75 48 -128 0 -86 -41 -144 -104 -150
-37 -4 -77 19 -96 56 -17 31 -23 126 -10 163 17 51 61 85 106 81 19 -2 45 -11
56 -22z"/>
<path d="M10064 6136 c-3 -8 -4 -27 -2 -42 2 -24 8 -29 33 -30 28 -1 30 1 32
34 1 20 -3 40 -10 44 -19 12 -47 9 -53 -6z"/>
<path d="M10709 6147 c-1 -1 -2 -123 -4 -270 -2 -265 -2 -269 19 -277 46 -17
46 -14 44 273 l-3 270 -27 3 c-16 1 -29 2 -29 1z"/>
<path d="M8486 6129 c-72 -11 -133 -54 -170 -119 -29 -51 -31 -62 -31 -150 1
-106 16 -149 76 -208 68 -67 214 -81 327 -32 l52 22 0 113 c0 82 -3 114 -12
117 -10 3 -139 2 -170 -1 -13 -2 -9 -51 5 -52 6 -1 28 -3 47 -4 19 -1 41 -3
47 -4 9 -1 13 -22 12 -70 -1 -68 -2 -70 -32 -80 -43 -15 -139 -14 -178 3 -62
26 -98 90 -103 180 -7 139 62 227 180 229 55 1 134 -22 161 -45 20 -19 21 -19
27 -1 14 46 -2 68 -67 87 -68 20 -111 24 -171 15z"/>
<path d="M8998 6005 c-2 -2 -21 -6 -43 -9 -74 -10 -85 -16 -85 -48 0 -25 3
-28 21 -23 12 4 27 8 33 9 6 1 16 4 21 7 19 12 102 1 128 -15 21 -14 43 -64
32 -74 -2 -2 -38 -5 -82 -6 -86 -3 -148 -25 -158 -57 -4 -10 -10 -19 -15 -19
-13 0 -5 -102 10 -126 21 -34 64 -54 115 -54 50 0 76 10 114 44 l24 21 -5 -27
c-5 -29 -8 -28 59 -28 12 0 10 250 -2 290 -12 43 -33 73 -61 88 -23 12 -101
32 -106 27z m110 -228 c6 -28 -16 -82 -44 -108 -31 -29 -104 -31 -134 -4 -23
21 -27 86 -7 104 19 15 83 27 137 27 34 -1 46 -5 48 -19z"/>
<path d="M9917 5996 c-21 -6 -49 -22 -63 -35 l-24 -23 0 26 c0 23 -4 26 -34
26 l-34 0 2 -162 c1 -90 -2 -168 -7 -175 -4 -6 -4 -14 2 -17 6 -4 8 -13 5 -20
-5 -14 37 -28 54 -17 5 3 9 61 10 127 0 81 6 133 15 156 19 44 65 68 116 58
34 -6 37 -5 35 14 -1 12 -3 26 -3 32 -1 18 -32 22 -74 10z"/>
<path d="M10415 6002 c-100 -19 -143 -51 -168 -126 -19 -54 -15 -142 8 -186
19 -37 54 -69 95 -86 69 -29 242 -4 235 34 -2 9 -4 22 -4 28 -1 8 -14 7 -43
-4 -56 -19 -136 -19 -175 1 -31 16 -69 88 -57 108 3 6 62 9 139 8 74 0 139 2
145 6 15 9 3 103 -17 135 -18 27 -64 70 -75 70 -13 0 -22 2 -43 9 -11 4 -29 6
-40 3z m88 -92 c15 -17 27 -41 27 -55 l0 -25 -114 0 -115 0 9 31 c12 42 37 67
74 78 50 13 89 4 119 -29z"/>
<path d="M10061 5795 l0 -195 33 0 32 0 1 195 1 195 -34 0 -33 0 0 -195z"/>
<path d="M11800 5226 c0 -40 1 -41 33 -42 32 -1 33 0 31 35 -1 20 -2 38 -3 41
-1 3 -14 6 -31 6 -29 2 -30 0 -30 -40z"/>
<path d="M8465 5244 c-27 -7 -52 -13 -55 -14 -17 -2 -81 -72 -101 -110 -33
-63 -34 -204 -3 -270 46 -97 111 -135 229 -135 78 0 163 24 166 47 3 19 4 68
1 68 -1 0 -21 -12 -44 -27 -36 -24 -51 -28 -117 -28 -86 0 -128 21 -157 78
-48 91 -31 241 33 299 61 56 190 56 255 0 22 -19 37 -8 34 26 -5 55 -141 93
-241 66z"/>
<path d="M10085 5217 c-3 -7 -3 -25 -2 -42 4 -38 -10 -68 -29 -61 -8 3 -15 1
-15 -4 -5 -35 -2 -43 14 -46 11 -1 21 -5 24 -8 3 -2 6 -65 7 -138 3 -165 11
-183 91 -195 94 -13 117 -8 108 27 -6 23 -4 22 -59 24 -70 2 -74 11 -74 157 0
96 3 129 13 130 6 0 33 1 59 1 37 -1 50 3 58 18 14 26 -10 37 -77 35 l-52 -2
-3 55 c-3 52 -5 55 -31 58 -15 1 -30 -3 -32 -9z"/>
<path d="M11519 5223 c-1 -2 -2 -27 -3 -55 -1 -39 -5 -53 -16 -54 -8 -1 -20
-2 -26 -3 -7 -1 -9 -12 -6 -27 3 -19 9 -24 23 -21 23 6 21 20 23 -141 3 -159
13 -180 91 -197 65 -14 114 -8 110 13 -2 10 -4 22 -4 29 -1 7 -18 10 -47 8
-76 -4 -83 9 -83 159 0 90 4 126 12 127 7 0 35 2 62 3 63 3 64 4 61 19 -4 27
-17 33 -75 31 l-61 -2 0 57 c0 57 0 57 -30 56 -16 0 -31 -1 -31 -2z"/>
<path d="M8939 5120 c-101 -12 -154 -83 -153 -204 1 -141 74 -216 198 -203 30
3 66 13 81 23 93 61 108 247 27 332 -43 44 -88 60 -153 52z m71 -65 c56 -29
79 -119 54 -206 -22 -74 -92 -105 -154 -68 -87 54 -70 264 23 282 41 8 48 7
77 -8z"/>
<path d="M9408 5119 c-15 -4 -40 -16 -57 -28 -36 -26 -41 -26 -36 -1 2 12 -2
20 -11 21 -50 5 -49 6 -54 -51 -3 -30 -4 -119 -2 -197 l3 -143 32 0 32 0 0
118 c-1 64 2 130 7 147 20 74 113 107 163 57 27 -26 26 -21 29 -210 1 -108 8
-125 47 -115 18 5 20 15 19 142 -1 168 -16 222 -68 247 -42 19 -68 23 -104 13z"/>
<path d="M9791 5119 c-76 -16 -110 -54 -107 -121 3 -50 28 -75 95 -94 113 -33
131 -44 131 -79 0 -27 -6 -35 -32 -48 -32 -15 -104 -15 -138 0 -8 3 -19 7 -25
8 -5 2 -14 4 -20 6 -12 5 -15 -3 -15 -35 0 -20 7 -26 47 -35 58 -15 149 -12
185 5 42 21 68 62 68 106 0 54 -38 91 -110 108 -116 27 -148 56 -111 102 22
26 105 33 163 12 l39 -14 -3 32 c-2 26 -9 33 -33 40 -46 12 -97 15 -134 7z"/>
<path d="M10518 5115 c-27 -6 -57 -22 -68 -35 l-20 -23 0 25 c0 29 -15 38 -45
29 -19 -6 -20 -14 -21 -198 l0 -193 33 0 33 0 1 123 c1 141 1 146 24 180 20
31 43 40 102 39 40 -1 43 0 41 24 -3 36 -25 44 -80 29z"/>
<path d="M11218 5109 c-88 -30 -129 -101 -123 -214 6 -118 88 -191 202 -182
96 8 106 13 109 53 1 20 -2 23 -20 18 -141 -46 -216 -5 -222 120 -5 134 82
195 212 146 13 -5 24 -8 25 -7 15 44 1 63 -54 73 -68 12 -75 12 -129 -7z"/>
<path d="M12120 5123 c-105 -30 -150 -97 -147 -220 3 -84 35 -145 92 -172 25
-12 56 -21 70 -21 21 0 25 5 25 28 0 23 -5 28 -27 30 -37 3 -71 38 -84 85 -13
51 -5 143 16 163 8 8 15 19 15 23 0 4 18 14 40 21 31 10 40 18 40 36 0 23 -15
34 -40 27z"/>
<path d="M10661 5101 c-15 -29 -4 -286 13 -319 23 -46 67 -72 118 -72 41 0
103 28 120 54 6 8 8 7 9 -1 1 -7 2 -18 3 -24 2 -18 44 -30 53 -16 11 16 12
387 1 388 -4 1 -15 2 -23 2 -8 0 -19 -1 -24 -2 -7 -1 -12 -93 -12 -245 0 -67
-82 -118 -146 -91 -17 7 -34 19 -39 26 -5 8 -9 78 -10 157 -1 79 -5 146 -8
150 -13 12 -47 8 -55 -7z"/>
<path d="M11810 5110 c-9 -5 -12 -57 -12 -196 l0 -189 33 0 34 0 0 183 c0 101
-3 188 -7 194 -8 14 -32 18 -48 8z"/>
<path d="M8830 4113 c0 -236 2 -273 15 -274 8 0 31 -1 50 -1 19 0 41 1 48 1 9
1 12 32 12 120 1 131 9 159 54 179 22 10 34 10 54 1 32 -14 37 -44 34 -192 -2
-117 -7 -109 63 -109 72 0 66 -13 65 150 -1 120 -5 154 -19 185 -22 46 -63 69
-122 69 -45 0 -114 -33 -114 -54 0 -6 -3 -8 -7 -4 -5 4 -9 48 -9 97 -1 49 -2
93 -3 98 0 5 -28 9 -61 8 l-60 -2 0 -272z"/>
<path d="M8480 4364 c-87 -18 -141 -61 -180 -143 -35 -73 -30 -189 12 -266 54
-99 193 -146 334 -115 65 15 80 30 78 80 -2 51 -7 57 -36 38 -85 -56 -217 -29
-253 52 -15 34 -22 110 -13 150 8 35 50 89 80 101 44 18 120 14 173 -10 25
-11 46 -17 48 -13 2 6 2 30 -2 83 -1 21 -73 48 -134 52 -26 1 -74 -3 -107 -9z"/>
<path d="M9418 4236 c-72 -10 -70 -8 -70 -71 0 -14 0 -27 1 -30 1 -2 22 2 47
10 52 15 148 13 170 -5 7 -7 14 -20 14 -30 0 -15 -12 -18 -88 -22 -95 -4 -140
-23 -163 -66 -19 -34 -16 -104 5 -136 45 -70 189 -75 229 -9 11 17 28 7 21
-12 -8 -19 7 -24 74 -28 l52 -3 0 146 c0 118 -3 151 -18 180 -35 71 -126 96
-274 76z m167 -227 c10 -11 -18 -70 -38 -81 -41 -22 -76 -19 -93 7 -19 29 -11
59 19 72 22 10 102 11 112 2z"/>
<path d="M10067 4240 c-42 -8 -87 -29 -87 -42 0 -4 -6 -8 -14 -8 -9 0 -13 7
-11 20 2 11 -2 20 -8 21 -61 4 -109 4 -113 -2 -6 -10 -6 -380 0 -386 4 -4 65
-6 106 -4 13 1 15 19 15 111 -1 116 13 173 43 185 39 16 60 14 78 -6 16 -18
19 -39 21 -151 1 -71 4 -132 6 -135 7 -7 101 -8 113 -1 13 9 10 286 -4 318
-28 62 -81 91 -145 80z"/>
<path d="M11037 4240 c-21 -4 -51 -20 -67 -35 -17 -16 -30 -25 -31 -19 -1 5
-2 18 -3 28 -1 17 -9 20 -61 20 l-60 0 -3 -189 c-1 -104 1 -192 6 -197 12 -12
75 -16 101 -7 19 7 20 16 20 112 0 155 16 182 109 182 l56 1 1 47 c3 56 -11
67 -68 57z"/>
<path d="M11338 4245 c-2 -2 -20 -6 -40 -9 -93 -14 -158 -92 -160 -190 -2
-143 86 -221 244 -215 55 2 141 19 152 29 6 7 14 89 9 94 -3 3 -25 -4 -49 -14
-64 -28 -137 -34 -174 -15 -31 16 -59 59 -47 71 8 9 123 8 136 -1 6 -3 11 -3
11 2 0 4 33 8 72 8 l73 0 -3 35 c-11 125 -76 191 -199 205 -12 1 -24 1 -25 0z
m75 -117 c34 -41 20 -52 -62 -50 -41 1 -76 4 -78 6 -9 8 21 55 41 64 30 15 78
5 99 -20z"/>
<path d="M10319 4232 l-26 -3 74 -187 c41 -103 78 -191 82 -195 9 -9 128 -14
135 -6 3 2 34 81 71 174 36 94 70 178 76 188 6 11 8 21 6 24 -5 4 -73 7 -108
4 -12 -1 -31 -40 -65 -136 l-48 -135 -13 43 c-8 23 -18 51 -23 62 -5 11 -19
49 -31 85 -12 36 -25 69 -29 73 -7 9 -62 14 -101 9z"/>
</g>
</svg>
